<svg xmlns="http://www.w3.org/2000/svg" viewBox="0 0 616 196" font-family="Helvetica, Arial, sans-serif">
<style>.key{fill:#fdfdfd;stroke:#444;stroke-width:1.2;rx:6;}.main{font-size:20px;fill:#111;}.shift{font-size:12px;fill:#666;}</style>
<rect class="key" x="10" y="10" width="56" height="56" rx="6"/>
<text class="shift" x="20" y="28" text-anchor="middle">Q</text>
<rect class="key" x="70" y="10" width="56" height="56" rx="6"/>
<text class="shift" x="80" y="28" text-anchor="middle">W</text>
<text class="main" x="98" y="50" text-anchor="middle">«</text>
<rect class="key" x="130" y="10" width="56" height="56" rx="6"/>
<text class="shift" x="140" y="28" text-anchor="middle">E</text>
<text class="main" x="158" y="50" text-anchor="middle">é</text>
<rect class="key" x="190" y="10" width="56" height="56" rx="6"/>
<text class="shift" x="200" y="28" text-anchor="middle">R</text>
<rect class="key" x="250" y="10" width="56" height="56" rx="6"/>
<text class="shift" x="260" y="28" text-anchor="middle">T</text>
<rect class="key" x="310" y="10" width="56" height="56" rx="6"/>
<text class="shift" x="320" y="28" text-anchor="middle">Y</text>
<text class="main" x="338" y="50" text-anchor="middle">»</text>
<rect class="key" x="370" y="10" width="56" height="56" rx="6"/>
<text class="shift" x="380" y="28" text-anchor="middle">U</text>
<text class="main" x="398" y="50" text-anchor="middle">ù</text>
<rect class="key" x="430" y="10" width="56" height="56" rx="6"/>
<text class="shift" x="440" y="28" text-anchor="middle">I</text>
<text class="main" x="458" y="50" text-anchor="middle">î</text>
<rect class="key" x="490" y="10" width="56" height="56" rx="6"/>
<text class="shift" x="500" y="28" text-anchor="middle">O</text>
<text class="main" x="518" y="50" text-anchor="middle">ô</text>
<rect class="key" x="550" y="10" width="56" height="56" rx="6"/>
<text class="shift" x="560" y="28" text-anchor="middle">P</text>
<rect class="key" x="25" y="70" width="56" height="56" rx="6"/>
<text class="shift" x="35" y="88" text-anchor="middle">A</text>
<text class="main" x="53" y="110" text-anchor="middle">à</text>
<rect class="key" x="85" y="70" width="56" height="56" rx="6"/>
<text class="shift" x="95" y="88" text-anchor="middle">S</text>
<rect class="key" x="145" y="70" width="56" height="56" rx="6"/>
<text class="shift" x="155" y="88" text-anchor="middle">D</text>
<text class="main" x="173" y="110" text-anchor="middle">œ</text>
<rect class="key" x="205" y="70" width="56" height="56" rx="6"/>
<text class="shift" x="215" y="88" text-anchor="middle">F</text>
<text class="main" x="233" y="110" text-anchor="middle">ë</text>
<rect class="key" x="265" y="70" width="56" height="56" rx="6"/>
<text class="shift" x="275" y="88" text-anchor="middle">G</text>
<rect class="key" x="325" y="70" width="56" height="56" rx="6"/>
<text class="shift" x="335" y="88" text-anchor="middle">H</text>
<text class="main" x="353" y="110" text-anchor="middle">è</text>
<rect class="key" x="385" y="70" width="56" height="56" rx="6"/>
<text class="shift" x="395" y="88" text-anchor="middle">J</text>
<text class="main" x="413" y="110" text-anchor="middle">ï</text>
<rect class="key" x="445" y="70" width="56" height="56" rx="6"/>
<text class="shift" x="455" y="88" text-anchor="middle">K</text>
<text class="main" x="473" y="110" text-anchor="middle">û</text>
<rect class="key" x="505" y="70" width="56" height="56" rx="6"/>
<text class="shift" x="515" y="88" text-anchor="middle">L</text>
<text class="main" x="533" y="110" text-anchor="middle">â</text>
<rect class="key" x="55" y="130" width="56" height="56" rx="6"/>
<text class="shift" x="65" y="148" text-anchor="middle">Z</text>
<rect class="key" x="115" y="130" width="56" height="56" rx="6"/>
<text class="shift" x="125" y="148" text-anchor="middle">X</text>
<rect class="key" x="175" y="130" width="56" height="56" rx="6"/>
<text class="shift" x="185" y="148" text-anchor="middle">C</text>
<text class="main" x="203" y="170" text-anchor="middle">ç</text>
<rect class="key" x="235" y="130" width="56" height="56" rx="6"/>
<text class="shift" x="245" y="148" text-anchor="middle">V</text>
<text class="main" x="263" y="170" text-anchor="middle">ü</text>
<rect class="key" x="295" y="130" width="56" height="56" rx="6"/>
<text class="shift" x="305" y="148" text-anchor="middle">B</text>
<rect class="key" x="355" y="130" width="56" height="56" rx="6"/>
<text class="shift" x="365" y="148" text-anchor="middle">N</text>
<text class="main" x="383" y="170" text-anchor="middle">ê</text>
<rect class="key" x="415" y="130" width="56" height="56" rx="6"/>
<text class="shift" x="425" y="148" text-anchor="middle">M</text>
</svg>